#N canvas 575 292 1150 895 12;
#X obj 132 112 osc~ 1000;
#X obj 132 301 *~;
#X obj 132 62 r freq;
#X obj 146 140 r volume;
#X obj 149 250 line~;
#X obj 131 344 dac~;
#X msg 149 222 \$1 \$2;
#X obj 218 140 r ms;
#X obj 149 181 pack f f;
#X connect 0 0 1 0;
#X connect 1 0 5 0;
#X connect 1 0 5 1;
#X connect 2 0 0 0;
#X connect 3 0 8 0;
#X connect 4 0 1 1;
#X connect 6 0 4 0;
#X connect 7 0 8 1;
#X connect 8 0 6 0;
